<svg xmlns="http://www.w3.org/2000/svg" width="45.962746mm" height="47.677006mm" viewBox="0 0 162.86012 168.93428"><path d="M268.793-6.85h-3.052v3.863h3.052V-6.85zm-13.34 29.212c4.401 5.815 12.143 4.487 12.143 4.487.94-8.232-2.39-10.9-2.39-10.9-2.07 4.37 1.058 9.645 1.058 9.645-4.704-4.344-10.812-3.232-10.812-3.232m8.034-45.18-1.48-1.383c-3.579.91-6.18 4.083-6.18 4.083 1.679-4.02.77-7.782.018-9.78l-1.076-.883c-3.106 5.887.333 12.346.333 12.346 4.776-1.148 7.197-3.033 8.385-4.384m9.993 53.72c-.158-2.557-.622-4.42-1.198-5.91l-2.943.004c.796 2.795 2.606 4.902 2.606 4.902-5.392-3.466-11.212-1.31-11.212-1.31 5.347 4.964 12.747 2.313 12.747 2.313m-.725-43.641V20.79h16.613c1.877.05 3.812 1.522 3.812 1.522V-4.513c-10.064-.216-12.09-8.228-12.09-8.228h-8.335zm7.863 20.385h-1.247v6.49h-1.575v-6.49h-1.233V6.163h4.055v1.48zm7.836 6.616c-.445 0-.994-.135-1.355-.4v-1.504c.374.257.73.428 1.198.428.504 0 .909-.342.909-.869 0-.612-.49-.846-.932-1.165-.909-.613-1.467-1.202-1.467-2.363 0-1.26.73-2.35 2.08-2.35.508 0 .963.14 1.395.392v1.534c-.32-.274-.707-.508-1.14-.508-.49 0-.796.297-.796.783 0 1.31 2.4 1.386 2.4 3.542 0 1.414-.81 2.48-2.292 2.48m1.17-17.797h1.576v7.972h-1.575v-7.972zm-4.955 0h1.589c1.004 0 2.795.104 2.795 2.282 0 .878-.346 1.625-1.125 2.057l1.381 3.628h-1.66L286.266.753h-.022V4.43h-1.575v-7.967zm1.66 17.671h-1.678l-.297-1.341h-1.598l-.288 1.341h-1.562l1.85-7.971h1.656l1.918 7.971zm-1.98-17.67v1.476h-1.597v1.733h1.404v1.48h-1.404v1.8h1.615V4.43h-3.186v-7.958l-2.21 7.958h-1.288l-2.304-7.967h1.688L278.02.29c.14.45.19.91.284 1.36h.021c.086-.464.117-.914.243-1.382l.964-3.804h4.816zm26.97-26.53-4.978 5.415.05 8.656s-.154 1.427-.46 2.133h3.2l9.147-9.146-6.959-7.057zm-42.426 41.46h-3.052v3.856h3.052v-3.857zm4.978-37.449 6.405 6.301v-4.874l-6.405-6.405v4.978zm-5.05 53.976a.724.724 0 1 0 0-1.45.726.726 0 0 0-.72.725c0 .4.324.725.72.725m-11.594-51.59a.723.723 0 1 0 1.446-.007.723.723 0 0 0-1.446.007m11.64 46.31c.024.329.09-.072.09-.072v-4.712l-.78.864c.441 1.188.595 2.894.689 3.92m11.41-39.982v-.99l-4.726-4.726h-11.072l6.251 5.716h9.547zM256.249-30.79s-.414-2.579 2.277-6.445h-9.092s.387 1.057 6.815 6.445m-7.881 14.187c-1.625 7.112 4.37 12.193 4.37 12.193 6.905-4.573 6.806-8.84 6.806-8.84-4.672 1.22-6.707 7.013-6.707 7.013.306-6.405-4.47-10.366-4.47-10.366m5.357 3.295c1.409-6.252-2.602-10.983-2.602-10.983-2.84 6.72 2.183 12.765 2.183 12.765 7.598-3.304 8.241-7.52 8.241-7.52-4.816.386-7.822 5.738-7.822 5.738m.639 2.98a.727.727 0 0 0-.725-.725.724.724 0 1 0 .725.725m37.043 36.66h4.766s.315-2.07 1.661-2.07h19.796v-34.83l-1.967-2.07v34.514h-17.725s-2.386.207-4.254 2.484c0 0-1.449-2.174-4.555-2.38h-17.31v-34.307l-2.125 2.124v34.464h19.327s2.386.1 2.386 2.07m-31.02-63.998c-4.965 5.342-2.314 12.742-2.314 12.742 8.273-.504 10.316-4.25 10.316-4.25-4.659-1.282-9.313 2.715-9.313 2.715 3.466-5.392 1.31-11.207 1.31-11.207m23.333 47.089-.18-1.207h-.021l-.171 1.207-.338 2.12h1.112l-.4-2.12zm45.735 14.988a10.94 10.94 0 0 0 3.303-3.16s-2.62-.342-5.684.693l2.38 2.467zm5.036-31.606s-2.165-5.743-6.868-6.855c0 0-.004 4.272 7.012 8.683 0 0 5.874-5.222 4.083-12.297 0 0-4.681 4.078-4.227 10.47m-8.808 17.139s-2.746 3.272-.207 11.158c0 0 7.854-.225 11.027-6.792 0 0-6.202.112-9.965 5.302 0 0 2.03-5.793-.855-9.668m8.62-10.02s-1.14-6.035-5.578-7.939c0 0-.742 4.204 5.402 9.763 0 0 6.693-4.119 6.152-11.397 0 0-5.315 3.2-5.977 9.574m-5.536-1.81s-1.458 4.015 3.623 10.56c0 0 7.305-2.895 8.039-10.16 0 0-5.793 2.229-7.544 8.39 0 0-.08-6.139-4.118-8.79m4.65 5.392c.4 0 .724-.328.724-.729a.723.723 0 0 0-.725-.72c-.4 0-.724.324-.724.72 0 .4.324.73.724.73m-4.235 12.386a.72.72 0 0 0-.72-.725.724.724 0 1 0 0 1.45c.4 0 .72-.324.72-.725m-61.2-43.133h.004c-.288.23-2.3 2.066-5.365 2.44l1.044.981 10.974-.05-3.407-3.402h-.004L269.504-29s-1.224 1.558-1.526 1.76M310.4 8.265h-.022l-.166 1.206-.337 2.125h1.107l-.405-2.125-.176-1.206zm-22.878-9.51c0-.572-.275-1.036-1.067-.995h-.212v2.124l.28.014c.715 0 .999-.486.999-1.144m6.774-3.47v27.029s1.526-1.522 3.659-1.522h16.766V-12.74h-9.042s-2.57 7.908-11.383 8.025m2.02 1.229h1.576v6.49h1.647V4.48h-3.222v-7.967zm5.11 17.675-.379-5.743h-.025l-.252 1.967-.675 3.776h-1.215l-.77-3.817-.266-1.777v-.149h-.021l-.235 5.743h-1.687l.697-7.971h2.07l.775 4.704h.018l.635-4.704h2.115l.833 7.971h-1.616zm10.081 0-.292-1.346h-1.598l-.284 1.346h-1.562l1.846-7.971h1.66l1.913 7.971h-1.683zm-4.793-17.675h1.773l.455 1.112c.135.391.297.8.378 1.21h.022c.085-.41.216-.81.36-1.21l.477-1.112h1.701L310.18.37l1.827 4.11h-1.827l-.504-1.265c-.149-.405-.248-.792-.356-1.193h-.018c-.117.4-.211.788-.346 1.193l-.468 1.265h-1.774l1.688-4.11-1.688-3.857zm.427 9.704v1.48h-1.597v1.73h1.408v1.485h-1.408v1.795h1.62v1.481h-3.191V6.217h3.168zm-4.05-3.038c.77 0 .77-.58.778-1.17v-5.496h1.576v5.81c0 .847-.095 2.283-2.368 2.283-1.467 0-2.345-.684-2.345-2.174v-5.92h1.575v5.16c0 .602-.076 1.507.784 1.507M272.88-31.92s-.712 1.04-3.43 1.625l3.43 3.173v-4.798zm8.708 13.872c0 8.435 5.29 12.328 11.807 12.328 6.53 0 11.824-3.88 11.824-12.328v-24.044h-23.626s-.004 15.618-.004 24.044m5.694-17.036v-3.556h11.077v5.082h3.654v3.655h-3.55v1.63h3.55v3.96h-3.55v11.892h-3.053l-4.217-4.222-3.857 3.861-2.795-2.79 6.4-6.405 3.304 3.304v-16.41h-6.963zm-15.79 18.634 2.822 2.485h6.365c-.306-.504-.207-2.435-.207-2.435l-8.98-.05zm51.199 31.79s-.513.54-.684 1.36l1.53 1.589c-.086-.99-.337-1.999-.846-2.948m-60.178 6.499c2.354-7.944-.468-11.144-.468-11.144-2.795 3.933-.63 9.677-.63 9.677-3.88-5.1-10.087-5.064-10.087-5.064 3.326 6.495 11.185 6.53 11.185 6.53m-.392-52.642c8.233.94 10.893-2.395 10.893-2.395-4.357-2.07-9.641 1.058-9.641 1.058 4.352-4.708 3.24-10.812 3.24-10.812-5.82 4.402-4.492 12.149-4.492 12.149m17.23 58.224c.392 4.82 5.739 7.823 5.739 7.823-6.248-1.409-10.983 2.606-10.983 2.606 6.725 2.835 12.77-2.183 12.77-2.183-3.304-7.602-7.526-8.246-7.526-8.246m-20.974-11.4c3.695-7.41 1.476-11.055 1.476-11.055-3.443 3.389-2.304 9.425-2.304 9.425-2.94-5.698-9.056-6.743-9.056-6.743 2.151 6.972 9.884 8.372 9.884 8.372m16.608 8.993-1.026-.009c-.058 4.555 4.326 8.142 4.326 8.142-5.915-2.475-11.27.657-11.27.657 6.13 3.961 12.953.063 12.953.063-1.328-5.536-3.66-7.908-4.983-8.853m-15.253 3.439s1.125-.67 2.763-.914l-1.814-.432-.175.23c.099-.144.175-.23.175-.23l-8.047 8.466s-.914 1.324-.05 2.188c0 0 .81.661 1.93-.1l7.837-6.854c-.792-.41-2.525-1.85-2.62-2.354m-4.42-18.877c4.93-6.662 3.372-10.636 3.372-10.636-3.975 2.746-3.903 8.885-3.903 8.885-1.903-6.121-7.746-8.214-7.746-8.214.905 7.246 8.278 9.965 8.278 9.965m4.131-47.67-9.528-9.529s-3.983 2.859-.887 9.529h10.415zm4.308-3.466-5.604-5.657c-3.47-3.466-7.584-1.18-7.584-1.18l11.036 10.987c.739-2.817 2.152-4.15 2.152-4.15m-10.32 45.262c0 .4.323.725.724.725.4 0 .72-.324.72-.725a.72.72 0 0 0-.72-.725c-.4 0-.725.324-.725.725m-.018-1.004c6.009-5.707 5.167-9.888 5.167-9.888-4.393 2.012-5.387 8.07-5.387 8.07-.81-6.36-6.203-9.434-6.203-9.434-.364 7.291 6.423 11.252 6.423 11.252m5.275 14.03a.724.724 0 1 0 1.449 0 .724.724 0 0 0-1.449 0m60.601 10.568a.724.724 0 1 0 .001-1.448.724.724 0 0 0 0 1.448m3.848-.94-2.548-2.076c.054.649.14 1.333.257 2.066 0 0 .918.108 2.29.01m7.126-12.82s.995-6.058-2.525-9.366c0 0-2.134 3.695 1.737 11.018 0 0 7.697-1.58 9.682-8.6 0 0-6.095 1.187-8.894 6.949m-48.3 20.213a.724.724 0 1 0-1.448 0 .724.724 0 0 0 1.448 0m34.275-4.37s1.57-1.881 2.34-4.528l-2.943-.045c-.468 1.445-.82 3.281-.905 5.613 0 0 6.36 2.11 11.455-1.576l-1.962-1.58c-2.174-.121-5.159.203-7.985 2.116m2.142-11.739v3.862l17.275 14.327h3.452l-17.58-18.189h-3.147zm-25.304 16.663v1.805c-.833-1.31-4.087-6.072-7.764-6.306 0 0 1.251 4.254 6.756 6.756 0 0-6.91.455-9.727 4.235 0 0 6.022.545 10.735-4.14v2.939h1.832v-5.289h-1.832zm3.052 2.237c5.486-2.538 6.706-6.805 6.706-6.805-4.267.301-7.926 6.706-7.926 6.706 4.775 4.875 10.973 4.267 10.973 4.267-2.844-3.763-9.753-4.168-9.753-4.168m7.089-1.508s5.28-3.132 5.554-7.953c0 0-4.204.743-7.328 8.417 0 0 6.157 4.874 12.814 1.886 0 0-4.825-3.907-11.04-2.35m6.755-2.26s4.1-3.519 4.137-7.916l-1.463.058c-1.323 1.161-3.263 3.628-4.339 8.624 0 0 6.918 3.731 12.945-.37 0 0-5.428-3.006-11.28-.395m-3.632.697a.724.724 0 1 0 1.449.001.724.724 0 0 0-1.449 0m25.597-52.806s3.736-6.913-.369-12.95c0 0-3.002 5.429-.391 11.285 0 0-3.997-4.654-8.795-4.092 0 0 1.458 4.015 9.555 5.757m-17.572-16.163 2.192-2.268c-1.867-.433-5.374-1.058-8.21 1.057 0 0 1.459 1.652 6.018 1.211m14.584 11.725a.724.724 0 1 0 0-1.448.724.724 0 0 0 0 1.448m4.95 11.302s4.88-6.162 1.882-12.819c0 0-3.902 4.83-2.345 11.05 0 0-3.128-5.284-7.953-5.559 0 0 .743 4.204 8.417 7.328m-10.546-34.698c2.282 1.134 4.123-.054 4.123-.054 2.543-1.247 4.38.482 4.38.482 1.773 1.386 1.485 3.209 1.485 3.209 0 1.4-.406 1.494-.406 1.494-.846.58-.634-.4-.634-.4.025-.014.193-.69.193-.69.333-3.154-2.498-3.609-2.498-3.609-3.007-.526-3.754 2.25-3.754 2.25a5.31 5.31 0 0 0-.121 2.044l-3.754-3.754.176 3.173 8.385 8.381h2.998l-3.043-3.042a12.9 12.9 0 0 0 3.016.558c4.28-.261 4.73-4.357 4.73-4.357 1.13-4.276-2.925-7.733-2.925-7.733-2.705-2.322-6.797-2.511-6.797-2.511-5.82-.676-7.885-4.393-7.885-4.393-.68 1.692-.505 4.195-.505 4.195.388 3.857 2.836 4.757 2.836 4.757m9.515 35.886a.724.724 0 1 0 1.448.001.724.724 0 0 0-1.448 0m-15.884-27.043 1.774-1.795c-.752-2.535-2.278-5.59-6.045-7.41 0 0-.158 5.42 4.271 9.205m4.447 50.074h-3.052v3.862h3.052v-3.862zm2.368-38.259c1.345.383 2.997.671 5.018.752 0 0 .918-2.732.522-6.054l-2.642 2.53c.284.67.644 1.346 1.094 2.012 0 0-.73-.599-1.895-1.247l-2.097 2.007zm-57.914-8.24a.724.724 0 1 0 1.448 0 .724.724 0 0 0-1.448 0m63.77.872-7.823-7.822-7.013 7.615 7.521 7.422 7.314-7.215zm-16.61.252-1.574 1.882 8.533 8.538 1.729-1.728-8.687-8.692zm8.233 26.47h-3.052v3.862h3.052v-3.861zm-36.525-36.867s2.399 1.585 6.612-1.319c0 0-5.217-2.142-6.612 1.32m27.186 2.731s-2.372-.715-5.366.302l-.004 2.732c1.823-.036 3.673-.477 7.022-2.246 0 0-1.584-7.697-8.601-9.677 0 0 1.183 6.09 6.95 8.89m-31.467 3.398.059-2.656c-2.958-.869-5.946-.302-5.946-.302 5.693-2.939 6.738-9.056 6.738-9.056-6.972 2.147-8.377 9.88-8.377 9.88 3.219 1.602 5.721 2.093 7.526 2.134m-2.192 1.539c-3.938-2.8-9.682-.635-9.682-.635 5.1-3.88 5.064-10.086 5.064-10.086-6.495 3.33-6.53 11.184-6.53 11.184 7.943 2.359 11.148-.463 11.148-.463m-.45-5.829a.724.724 0 1 0 1.448.001.724.724 0 0 0-1.448 0m1.755-.766 5.464-.077c-1.696-1.021-3.555-.985-3.555-.985 6.117-1.904 7.863-7.36 7.863-7.36-7.238.905-9.96 8.278-9.96 8.278l.188.144m29.176.369a.72.72 0 0 0-.72-.725.724.724 0 1 0 0 1.45c.4 0 .72-.324.72-.725m-3.835-1.431s-1.86-.036-3.556.985l5.464.077c.095-.072.1-.072.19-.144 0 0-2.72-7.373-9.961-8.277 0 0 1.746 5.455 7.863 7.359m-11.748-.837a.97.97 0 1 0-.004-1.94.97.97 0 0 0 .004 1.94m8.485.504c-1.526-3.408-6.657-1.067-6.657-1.067 4.32 2.741 6.657 1.067 6.657 1.067" style="fill:#ffffff;fill-opacity:1;fill-rule:nonzero;stroke:none" transform="matrix(1.69997 0 0 1.69997 -417.853 97.48)"/></svg>